<svg version="1.1" id="Camada_1" xmlns="http://www.w3.org/2000/svg" x="0" y="0" height="100" width="100" viewBox="0 0 3000 1147.1" style="enable-background:new 0 0 3000 1147.1" xml:space="preserve"><style>.st0{fill:#FFF}</style><path class="st0" d="M2834 824.1c-51-13-95-24-95-66 0-33 25-54 65-54 37-2 71 23 78 60l100-48c-27-66-92-106-175-106-108 0-183 66-183 160 0 115 83 137 157 156 52 13 96 25 96 68 0 36-29 59-73 59s-81-24-91-60l-100 48c28 66 99 106 187 106 117 0 192-65 192-167 0-116-88-138-158-156zM3000 145.1v53h-85v50h74l-14 51h-60v79h-58v-233h143zM2711 199.1c36 0 65 29 65 65s-29 65-65 65-65-29-65-65 29-65 65-65zm0 186c67 0 121-55 121-122s-55-121-122-121-121 55-121 121c0 68 55 123 122 122zM1645 1132.1h108v-341l245 341h113v-519h-109v346l-242-346h-140l25 51v468zM2477 934.1c-15 37-45 66-81 82-19 8-39 12-60 12h-62v-310h62c21 0 41 4 60 12 37 15 66 45 81 82 16 40 16 83 0 122zm-36-300c-33-13-68-20-103-22h-177v519h177c70 0 137-26 188-74 24-23 44-51 57-82 43-98 20-212-57-286-25-23-53-42-85-55zM692 1132.1H383v-519h309v101H496v105h179l-27 98H496v114l196 1v100zM1398 714.1h196v-101h-308v519h308v-100l-196-1v-114h152l27-98h-179v-105zM1790 410.1c-10-29-15-59-14-89l2-320h112l-1 315c0 35 8 63 24 83 38 40 102 41 141 2l2-2c17-20 25-48 25-83l1-316h114l-2 323c0 30-4 60-14 89-9 25-24 48-42 68-19 19-41 34-66 43-57 20-119 20-176-1-25-10-47-24-65-44-18-19-32-42-41-68zM1228 370.1c-14-33-21-69-21-104 0-36 8-71 22-104 14-32 34-61 59-85 25-25 55-44 87-57 33-14 69-21 106-20 49-1 98 12 141 36 40 23 73 57 94 99l-102 48c-12-24-31-44-54-58-24-14-52-20-80-20-21 0-43 4-62 12s-36 20-50 35c-15 15-26 33-34 52-17 41-17 86-1 127 15 39 46 71 84 88 20 9 41 14 63 13 32 1 64-9 90-27 24-17 41-43 48-72h-185l46-94h258c1 20 0 63-1 72-3 24-9 48-18 71-25 62-74 110-136 135-102 41-218 17-296-61-25-25-44-54-58-86zM26 468.1v-413L0 1.1h138v419h207l-29 102H0l26-54zM26 1078.1v-413l-26-54h138v419h207l-29 102H0l26-54zM692 522.1H383V3.1h309v101H496v105h179l-27 98H496v113l196 1v101zM2554 522.1h-308V3.1h309v101h-196v105h179l-27 98h-152v113l196 1v101h-1zM988 147.1l65 175H920l68-175zm-145 375 39-101h208l40 101h117l-209-521H878l34 68-184 453h115zM926 1140.1c19 4 38 6 58 6 35 1 70-6 103-19 62-25 111-73 136-135 9-23 15-47 18-71 2-24 2-48 1-73H984v1l-46 94h184c-7 29-24 55-48 72-26 19-57 28-89 27-10 0-19-1-29-3l-23-6c-4-1-7-3-11-4-38-17-69-48-84-88-16-41-16-87 1-128 8-19 20-37 34-52s32-26 51-34c20-8 41-12 62-12 28-1 56 6 80 20 23 14 42 34 54 58l102-48c-21-42-53-76-94-99-43-24-91-36-141-36-72-1-141 27-193 78-25 24-45 53-59 85-29 66-29 142-1 208 14 32 33 61 57 86 22 22 48 40 76 54 19.7 8.9 39.3 16 59 19z"/></svg>