<svg image-rendering="optimizeQuality" text-rendering="geometricPrecision" shape-rendering="geometricPrecision" xmlns="http://www.w3.org/2000/svg" width="100" height="100" viewBox="0 0 3000 1883.3" style="enable-background:new 0 0 3000 1883.3" xml:space="preserve"><linearGradient id="a" gradientUnits="userSpaceOnUse" x1="-304.994" y1="-2433.082" x2="4256.09" y2="2007.97" gradientTransform="matrix(.2343 0 0 -.2343 955.711 955.371)"><stop offset="0" style="stop-color:#AAA"/><stop offset=".6" style="stop-color:#BBB"/><stop offset="1" style="stop-color:#AAA"/></linearGradient><path d="M1242.4 356.8c24.3-9.9 34.1-21.7 63.3-22.4 10.6-11.6 45.1-15.8 49.9-28.2 3.6-9.1 1.5-10.1 11-15.4 11.2-6.4 29.6-8.6 43.9-7.9 23.1 1.1 40.6-5.9 45.2 4.9-7.2 3.2-12.1 1.9-17.8 7.1-6.4 5.8-2.1 2.6-10 5.8-6.5 2.6-1.5 1.4-6.3 4.1-2.2-6.1-8.9-12.8-17.4-12.8-1.4 0-26 4.5-26.8 4.7 4.4 23.7 23.6-9 36 27.1.3-.3.5-1.4.6-1.2s.5-.9.6-1.2c3.4-6.1.6-3.6 3.5-5.4 3.8 5.3 6.7 16.3 11.1-.4 8 7.9 23.6-.1 40-5 10.1-3 31.3-12 42.2-9.9-1.4 8.7-13 10.5-14.6 19 7.5-.8 17.8-9.2 27.2-12.2 24.9-8 52.6-5.8 77-5.4 14 .2 27.6-1.2 41.6.2 6.5.6 12.6 1.9 18.7 2.7 12.2 1.7 43.4 1.5 50.4 14.1.2.4.8 1.8 1 2.2l.9 2.3c10.3-2.8 10.9-1.6 21.2.7 44.7 10 7 13.1 30.7 22.4 34 13.5 62.5 35.2 68.5 37.9 10.9 4.9 9.5-11 36.9 8.2l49.1 30.7c24.3 13.8 41.9 49 53.2 52.8-6.6-10-33.4-35.1-32.7-49.5 21.4-6.9 39.1 27.5 54.5 48.3l41.8 66.2c6.1 7.2 2.2-1.1 5 7.3 3.3 9.7 8.8 16.1 16.8 24 3.9 3.8 10.7 6.7 13 13.5 9 26.7 19 16.8 27.7 52.2 3.9 15.9 11.2 26.5 13.8 42.2 25.8 86.1 54.5 196.4 59 303.4.5-.5 1.2-1.1 2.6-2 .9 9.5-.4 15.2 1.7 24.9 2.2 10.2 2.1 13.6.6 24.3-3.5 24.1 5.4 6.4-7.3 46.6l-.8.9c-4.3 35.5-12.5 69.7-25.7 101.3-22.1 68.4-28.4 98.3-66.3 157.3-11.6 18.1-1.9 8.6-21.2 33.6l-25.1 31.2c-11.9 16.5-4.8 12.4-24.6 31.7-8.5 8.4-19.4 18.1-25.6 31.1l-25.5 25.7c-5.3 4.4-6.8 3.6-7 11.6-8.3-2.8-2.3-2.8-9.6 4.5-9.8 9.7-28 17.2-35.9 29.8-8.1-1.1-7.7-3.2-15.5 4.7-.3.3-1.2 1.3-1.5 1.6l-1.6 1.5c-.5.4-2.8 2.1-3.6 2.8-2.8 2.4-4.3 4.2-6.5 6.5 9.1-.7 8.9-4.3 16.6.5l6.2 3.1c-6.6 5.6-5.6 9.6-16 9.7 3.9-5.9 3.8-2.2 6.9-8.8-8 1-12.4 5.1-19.1 8.3-3.6 1.8 1.2.4-2.9.8-4.6.5 2.7-.5-3.4-.1-5.9.3-5.9 1.6-9.7 6.6l-4.4 5c-8.9 7.3-18.3 12.5-27.6 17.8-9.6 5.5-14.4 6.6-23.5 13.9-.1 6.7 2.4 6.3-1 10.2l7.6 1.5c-12.6 8.2-7.1-5-22.6 8.4-4.1 3.6-4 3-4.9 9.6l24.9-8.7c-3.2 1.5-6 3.9-9.9 5.9-8.8 4.3-6.4.3-10 8.8-6.9-7.1-11 1.1-15.1 8 5.6-1.2 5.9-3.4 10.6-1.6-3.1 1.5-9.8 3.1-12.5 6.4-4.4 5.5-.3 8.7-7.8 11.9l4-9.9c-12.8-.6-3.4 4.1-12.2 8.6-8.3 4.2-6.5-1.1-14.5 7.4-5.1 5.5-3.7-.7-4.2 7.1-.4 7.7 1.8 5.5 6.2 9.7l3.1 2.8c2.8 2.3 1 .6 3.4 4 9 .5 10.5-.5 13.6-4.5 4.5-6-3.3-.1 3.2-4.5 8.8-1.2 10.2 1.8 16.4 3.5 5.6-8.8-.1-2.9 8.9-6.7 3.8-1.6 6.3-3.6 11.7-4.8-.3.3-.7.4-.8 1-.8 3.4-6.3 5.6-8.7 7.6-.3.2-.6.5-.8.7-8.7 8-2.4 5.2-16.2 6-.2 0-.7 0-1 .1v1.8c.5 4.2 2.8 1.3-.6 6.8-6.4 10.5-4.6.2-8.1 7.5 1.8 7.3 5 6.4 12.2 6.7l2.6 5.8c.5-.2 2.6-3.1 2.9-3.2 4.4-2.2 5.5 1.3 15.2-5.6 7.4-5.3 8.6-8.8 19-12.3 8.9-3 23.2-3.4 26.4-12.7 2.6-7.4-1.5-2-.2-9.5.2-1.5 1-4 1.2-6.5l13.2-2.6c-1.2-.6-3.3-2.1-4.8-3.8.9-.9 1.6-1.5 2.3-2.1l2.8-3c-8.7 1.1-4.9 1.1-10.1 6.5l-4.4-7.7-3.3 6.9c-1.7 3.1-.5 2.2-4.6 3.4.1-.3.4-1 .5-.8l1.8-5.7c-11.4-.3-4.3 4-10 9.2-9 8.2-7.7-4.3-8.6 13.5-11.3 0-2.9 3.9-10.7 7.2-4.1-7.9 3.2 1.1-.7-5.1-2.4-3.8 2.4.6-2.2-1.9-.3-.2-.8-.3-1.2-.5-.4-.2-2.1-.6-2.6-.8.3-.3.7-1.3.8-1l3.6-5.2c1-1.8 2.4-4.3 1.2-7.5-10.3-3-21.1 10.4-30.7 10.8 5.2-2.8 25.2-16.3 32.4-16.9 11.1-1-.7 7 25.9-5.8 13.2-6.3 11.7-5.4 5.9-17.2 5.3-4 12-5.3 18.7-8.6 4.4-2.2 5.3-4.2 11.5-5.5-4.8 22.6-14.5 2.7-24.6 21.9 6.5 4.1-1.3.8 7.5 1.4 3.7.3 3.4.5 7.3 1.4-.5-5.1-.4-3.9-2.7-7.1l6.1-1.9c2.2 5.2-4.3 3.2 3 5.8.7-1.3 7.1-15.3 7.7-17.1.3.3.6.5.7 1.1.1.6.6.8.7 1.1 3.7 4.9 5.1 5.4 11.8 4.5.5-.1 1.8-.3 2.2-.4.3 0 .8-.1 1-.2.2 0 .8-.1 1-.1.2 0 .7 0 1-.1.6-3-.2-8.9-2.3-12.3-5.7-9.2-2.2 3.8-5.3-5 1.7-1.6 9-5.8 13-6.3l3.1 7 12.2-6.8c-2 9.2-5.3 4.8-11.8 11.7 1.6 4.8-2.3 1.2 5.4 4-6.5 4.3-1.4 3.6-5.9 10.7l-3.1-6.5-5.3 8.2c-2.9 5.4-5.2 7.3-13.5 8.5-2.5-4.3-1.8-6.4-6.5-8-3.8 11.5 4.3 16.2-15.3 13.5l3.5 17.5c11.6-2.2 10.5-9.6 22.8-9.2 1.1-16.4.9-10.3 14.3-11.3 5.5-6.5 2.9-10 16.8-9.5-1.5 6.7-1.7 5.4-6.5 7.9l3.6 2.2c3.1 2.3 1.6-.3 3.6 3.2l-11.4 3.3 1.8 3.9c.1 9.7-3.6-6.1-.2 2.2 10.3-2.9 10.2-4.5 20-.5l2.9-8.7c12 .9 13.4-3.5 18.2 2.2-10.3 3.1-26.1 9.7-38.1 14.4-11.6 4.5-27 11.9-39.3 14.6.9 8.6 3.3 1.4 0 7-11.8 1 0-.5-5.6-2.9-3.6-1.6-4-.3-6.4 1.8-7.9 6.8-2 3.8-14 6.3-9.7 2-17.9 8.6-28.2 12.4-20.7 7.6 4.4 4.1-26.7 10.8-23.4 5.1-13.8 7.8-25.8 14-.3.1-.8.3-1.2.6 6.9-.8 8.1-3.7 11.2-1.8-6.7 8.8-28.8 9.4-33.4 10.2-7.6 1.3-29.5 5.4-32.2 11.7 5.9 2.7 11.6-1.7 20-1.5-4.2 6-5.5 2.3-13.7 9.3l-5.1 5.1c25.9-4 24.2-10.4 29.4-15.2 3.8-3.6 5.8-2.9 9.7-5.5l2.2 1.4c6.6 4.4 8.1 5.7 23.9 1.3 17.3-4.9 10.3-3.7 15.8-8 2.4-1.9 2.8-2 6.6-2l-5.3 5.1 11.4.4-2.3 6.9c-.7 4.6 3 4.6-4 7-9.5 3.2-14-.7-21.9-2.1-9.5-1.7-11.7 1.6-18.5 4.1-7.6 2.7-36.8 5.2-56.8 16.6-3.9 2.2-11 6.3-15.1 8.4-11.1 5.7-16.5 5-17.8 11.2l.9 9.2c3.6 6.5.2.7 3.1 3.6 3.5-3.2 4.1-1.1 2.3-5.2-3.1-7.2 1 5.3-3.9-3 6-2.1 7.6-4.5 12.5-7.8 1.4 2.4 2.2-.8.7 5.5-2.9-4.1-.7-2.6-6.1-1.7l-.3 11.6c8.3-2 12.5-6.8 17.6-11.3 9.3-8.3 7.3-5.5 18.8-6.1.2-4.4-.7-4.9-2.7-7.7l12.4.7c-.9 6.9-4.4 5.9-4 14.6 13.2-.9 33.9-6.8 46.4-10.4 8.5-2.5 14.9-4.6 22.4-7.4 10.2-3.8 15.7-3.1 12.4-14.6l-6.6 6.7c-5.3-.5-5-.1-8.6-3.4 2.1-3.6 14.5-7.1 19.4-9.4 12.3-5.8 13-3.6 18.8 4.8 5.7-.9 6.9-2.1 12-3.6 8.7-2.5 9.2.2 13.9-.7 20.8-4.1 14.4-11.2 27.3-12.4 17.5-1.6 9.1-6.5 20.2-8.4 4.7-.8 5.5-1.4 9.3-3.4 5.8-3 10.6-5.4 16.4-8.5 14.6-8.1 13.2-3.8 14.3-10.4 19.5-3.8 17.7 1.1 39.9-13.4l98.4-65.5c1.8 2.2 2.9 4 6.3 4.2 3.6.2 3.4-1.2 7.2-2.7-2.5 8.1-4.5 3.8-6.5 10 3.8-.7 42-36.8 45.5-40.5 11.1-11.8 23.4-16.4 47.1-42 9.5-10.2 16.5-6.7 27-16.8 7-6.7 14.8-14.4 21.2-22.6 9.6-12.5 6.1-16 22.4-21.7 7.6-2.6 15.2-18.1 19.3-25.6.2-.4.2-1.4.2-1.2 0 .2.2-.9.2-1.1 1.4-7.1 0-2.3 9.5-11.4 5.6-5.4 8.5-7.3 12.8-15.4 8.2-15.6 13.5-23.4 31.5-21.6 11.8-32.4 24.5-40.4 34.9-68.2 6.4-17.1 7.2-7.4 13.5-20.9 7.3 1.4 2.4.2 7.8 5.2l14.7-47.1c1.7-4.2 5.7-9.3 8.1-13.7 4-7.4 1.2-25.5 1.8-36.5.4-7.9 3.1-8.1 5.7-13.8 3-6.5 2.4-11.7 4.4-17.6 1.7-5.3 4.5-7.1 7.1-13.1 1.8-4.1 3.2-10.4 5.9-14.4 8.7-13.1 17.8-13.3 14.3-26.2-4-14.8-10.6.8-2.1-28.8 11.1-38.7 9.7-14 17.5-25.4 1.2-13 2.8-25.2 4.8-38.2l4-63.1c-.3-11 2.8-10.5 4.1-19.1 2.4-16.6-3.6-9 3.9-18.4 4.6-5.8 5.1-10.6 2.1-18.9-1.8-5.1-6.3-10.1-7.7-14.5l-3.9-39.9c1.6-8.4 6.2-7.6 7.5-16 1-6.7 0-14.1 2.6-19.6 5-10.7 4.4-4.1 3.4-17.9-.6-7.5 1.3-14.9.9-20.1-.9-12.5-4 2.6-1.5-18.8-2.6-3.2-7.4-5.4-8.6-10.1-1.7-6.6 1.4-8.4-1.5-17.4l-8.5-47.8c-.6-10.5.5-7.5-3.8-15.1-5.4-9.6-4.7-21.7-8.5-29.1-3.7-9.5-3.7-5.5-4.5-17.7-.4-7.1-2.3-13-4.4-18.7-7.4-19.9-4.9-21.4-14.3-33.2 2.2-6.8 4.4-4.8 2.2-10.8-1.1-3-4.3-6.9-5.6-11.7-2.9-10.4 1.7-6-6.1-28.2-1.8-5.1-3.6-7.6-5.2-12-1.7-4.7-1.8-9.5-3.7-13.6-2-4.1-4.7-5.9-7.3-9.9-2.5-4-3.8-7.2-5.5-11.8l-7.1.1c2.3-7.4 6.6-8.8 3.6-16.6-2.5-6.4-6.8-7.5-9.7-12.3-10.4-17-.4-19-21.6-44.1-10.9-12.9 2.5-5.3-26-41.3-28.3-35.7-9.7-24.3-22.8-42.9-3.4-4.8-5-9.1-8.5-13.4-4.5-5.5-6.9-4.4-11.8-10.1-10.7-12.3-5-4.8-11.5-10.4-5.4-4.6-3.6-8.3-8.2-13.7-3.6-4.3-8.2-4.8-14.3-8.5-3-11.9 6.9-16.7-6.9-23.5-10.2-5-10.6-7.4-16.8-16-8-11.2-17.6-30.3-33.2-32l-1.1-2.5c-2.4-5.2-.2-3.9-4.2-6.7-3.1-2.2-7.1-1.7-11.7-2-4.4-14.5-9.7-15.4-18.5-24-9.2-8.9-37-29.1-48.6-35.8-7.6-4.4-6.6-6.5-12.1-10-5.3-3.4-8.8-4.3-14-7.7-9.8-6.4-16.6-10.3-25.9-16.3-5.2-3.3-8.6-5.8-14.2-7.8s-13-1.5-17.4-4.2c-9.5-5.8 5-7.5-52.9-33.1-9.3-4.1-81-35.2-86.5-41.9-5.2-6.3-1.4-6.9-12.3-9.5-6.5-1.6-11.6-2.3-17.9-4-10.3-2.8-22.6-6.1-33.8-8.2-17.9-3.4-20.4.7-35.1-8.8-9.5-6.2-22.1-5.9-34.6-7.5-25.2-3.2-32.9.3-40.9-.9-8.4-4.2-30.4-5.2-41.4-3.3-19.5 3.4-36.3-6.4-62.7-2-11.6 2-9.7.3-18.5-2.3-9.3-2.7-128.8-4.6-138.1-3.9-24 1.9-40.6-5.6-63.5.5-8.8 2.4-6.9 6.7-13.2 11.7-14-.6.9-4.4-14-4.2-9 .1-6.3 3.5-14.1 4.3-52.9 5.1-27.4 6.9-42.2 9.7-10.6 2-20.1.3-37.2 13.2-2.7.6-25 6.4-26.3 7.1-4.8 2.5-3.7 4.9-11.6 5.7-6.9.7-21.8-4.1-41.8 5.1-9.5 4.3-10.5 12.1-20.8 13.3-11 1.3-16.9 4.5-27 6.2l-29 5.5c-2.9 1.4-5.4 4.8-8.7 6.8-10 6.1-17.8 1.5-28.9 22.3-11.3.3-17-2.6-27.2 2.8-10.6 5.6-9.2 9.1-11 21.9-15.5 5-32.1 9.4-39.6 20.1-7.4.4-18 7-23.6 13.5-16.6 19.2-10.3 12.3-23.3 15.5-13.1 3.2-12.9 15.1-19.2 18.5-10.8 5.8-10.2-3-21 12.2-4.2 5.9-3.1.6-8 7.5-13.6 19.1-13.8 5.4-39.5 27.6l-35.7 29.9c-4 3.7-3 2.1-5.3 6.7-3.2.9-.8-.5-4.5 2.4L795.8 300c-11.1 12.1-6.6 3.4-15.4 17.4-7.1 11.3-19.6 15.1-33.8 31.9-10 11.9-19.8 21.6-28.9 35.2-3.8 5.6-2.5 4-7.5 8-4.1 3.3-18.8 20.6-16.5 30.6-14.9.4-9.1 8.4-22 24.9-12.6 16.1-28.3 41.9-40.1 56.8-8 10.2-13.3 15.7-19.1 30-9.8 9.3-25.7 35.2-29.7 49.3-3 10.7-5.4 20.8-8.1 30.9-1.4 5.3-3.4 9.7-5.5 15-3.7 8.9-2.1 7.6-3.4 17.1-1.3 9.3-3.6 4.3-5 14.2-1.2 8.7-.6 8.1-4 15.8-7.7 17.7-.2 24.6-2.9 31.6-.9 2.2-5.4 7.1-7.5 11.2-4 7.7-1.9 8.4-3.6 16.4-1.4 6.9-14.2 23.1-4.2 27.5-6.7 4.5-6.1 4.4-7.2 14.1-1.3 11.4-3.2 45.1 5.5 53.2l4 2.7c-15.5 21.6-11.8 23.9-10.6 48 .5 9.6-2.5 11.1-2.6 20.3-.1 13.5 3.3 26.4 2.8 40.7-.5 14.7-3.2 26.8-1.3 41.2 2.4 18.7 15.8 44.4 22.1 64.2 7.9 25 13.3 40.7 17.2 68.4 1.5 10.8 7.9 26.7 6.8 35.2-2.4 17.9-13.9 13.2-1 31.2 11.4 15.8 5.5 50.7 18.1 77.4 4.3 9.2-2.2 1.4 4.5 14.1l10.3 22.5c4.7 8.1 2 10.4 5.1 16.7 3.9 8 17.5 21.9 25 39.2 4.1 9.3 4.4 5.2 11.6 10.5-1.4 1 1-.2-3.1 1.8-1.7.8-.9.2-3.2 1.3.3 16 4.3 12.2 6.7 17.8 1.9 4.5-3 2.1 2 7.8 2.9 3.3 2.9.1 6.9 5.7-2.5 2.1-5 1.4-8.4 1 .6 10.1 25 42.7 33.2 47.5 9 5.3 2.2 4.2 9.6 10.8 5.1 4.5 6.5 4.8 11.4 10.5 5.1 6 14.8 17.7 18 24.3l6.7-6.8c1.7 10.3 2.1 10.3 8.1 15.4 7.1 5.9 5.8 10.1 10 13.4 6.9 5.5 10.1-.5 15.1 8.5 2.6 4.7 3.7 12.3 6.7 16.8 4.3 6.7 18.3 15.1 24.4 22.4 6.9 8.2 15.1 20.9 21.6 26.9 4.9 4.6 3.9 1.4 7.7 4.7l2.1 2.6c1.6 1.7 1.4 1.5 3.3 3.1 4.4 3.7 11.3 14.8 22.3 24.7l23.7 23c4.6 4.4 6 9.5 10.2 13.3l31.7 27.7c5.3 4.9 1.8 1.7 7.9 4.7 8.1 4 4.7 7.6 10.2 13.2 2.9 2.9 9.6 6.2 13.5 10 8.3 8.2 12.8 18.4 22.5 24.4 10.5 6.6 24 21.8 39 32.9 17.4 12.9 22.3 31.6 54.7 39.1l56.6 13.9c11.7 3.3 12.7.6 23.1 1.6 4.9 3.5 4 5.2 8.6 8.7 2.9 2.2 8.1 3.9 11.4 5.9 10.1 6 19.4 2.9 27.2 7.1 4 2.2 5.3 5.8 8.7 8.5 5 4.1 6.3 2.6 12 5.2 8.8 4 2.5 8.7 21.7 14.2 24 6.8 36.9 5.1 62.4 4 21.2-.9 32.2 2.6 37.8-7.3 2-3.4-4.7.6 1.6-2 7.4-3.1 4 6.6 3.6 10.3 10 1.8 39.4 1.5 49-1 22.2-5.9 46.4-4 67.6-13.7 16.8-7.7 15.1 1.1 39.9-14.9 9.4-6.1 12.3-4.5 24.1-4.7 2.1-8.1 11.1-16 21.4-15.6 2.5 4.1 1 6.8 3.1 10.5 10.3-13.3 3.9-9.4 5-22.7 10-5 19.5-11.1 28.8-16.5 7.2-4.2 9.4-.9 13.9-8 2.9-4.5 5.9-10.9 8.3-15.1 8.1-14.1 15.8-14 22.1-23.3 3.8-5.6 3.6-9.2 8.6-14.8 11-12.4 0-22.2 15.3-53.5 16.3-33.3-12.1-26.1-17.1-43.2-3.2-11 10.2-22.5-3.9-33.7-8-6.3-7.9-.4-18.5-1.3-8-4.2-12.1-14.6-16.7-20.7-7.4-1.1-11.2.1-17.3-.5l-9.1-6.4c-.1-.2-.4-.7-.6-1.1-29.9 2.8-20.7-10.4-29.3-14.1-12.7-.9-22-1.2-33.3-4.3-14.6-4-16.2-8.9-28.1.1-12.5-6.2-21-1.4-34.1-3.5-15.5-2.5-18.4-.9-32.6 3.8-3.2 22.8-14.3 17.3-16.5 7.5-.1-.5-.4-2.2-.5-2.6l-.7-2.5c-15.9.2-32.1 3.5-35.8-12.3 3.5-4.7 5.2-5 11.1-7.5l10.4-3.4c3.3-1.2 2.1-.5 3.6-1.6-6.1-4.6-5.6-2.1-12.9-1.3-6.6.7-10.3-.6-17 .1-3.5 4.9-5.9 11.6-9.5 16.7-15.4 2-15.9-7.1-20.9-16.3-3.4-6.1-15.4-11.3-24.2-13.2-2 12.3 1.1 14.1-10.7 17.4-21.6 6.1-25.6-4.1-38.6-16.8-7.3-7.1-13.2-3.9-21.7-8l-18.1-10.1c-5.7-3.2-11.9-8.2-17.4-12.2-22.2-16.1-43.3-34.9-61.8-53.9-7.8-8.1-19.3-26.2-26.8-31.1-13.9-9.2-9.8-13.4-18.6-23.6-4.2-4.9-5.8-3.9-9-6.7-4.6-3.9-1.8-3.5-4.6-9.3-2.7-5.5-3.9-4.2-8-7.7-5-4.3-7.7-11.1-13.5-16.6-13.3.4-12.6.5-22.3-10.1-6-6.6-10.7-12.6-16-20l-16.1-19.8c-5.7-8.6-3-19.1-14.4-23.6-.7 9.6.5 14.7.3 22.6-10.5 7.5-13.8-1.1-24.4-12.2-7.8-8.2-13.4-14.9-22-23.3-27.4-26.8-25.8-29.6-27.7-63.1-3.3 3.3-1 1.7-2.6 4.4-3.9 6.7 1.8 2.6-4.8 5.1-5-3.4-1.7-.5-4.1-7.3-2.7-7.8-9-13.5-9.3-22.3-40.1-72.7-80.9-203-61.3-343.3 1.6-18.7.8-11 12.1-15.3 5.5-16.9 7.6-78.4 9.5-87.3 4.4-20.4 25.5-65.2 25.8-71 11.1-10.6 4.8-19.1 33.4-42 9.2-7.3 11.9-8.5 18.9-18.7 5.7-8.3 10.2-14 15.5-22 5.6-8.4 11.9-12.5 18.3-19.2 18.2-19.1 9.7-15.3 28.3-28 4.4-3 9.2-4.7 12.1-6.6l17.6-20.7 35-29.9 95.2-65.8c7-4.2 15.2-7.3 21.1-11.6l.7-2.7c.1-.4.6-2.1.7-2.5 1.9-5 3.3-5.3 13.3-10 7.3-3.4 13.6-6.2 21.5-9.6 12.7-5.1 37-9.5 45.2-16.2zm353.2-63c7.7-1.3 5-3 12.9-5 4.1-1.1 10-1.6 15.3-2.2l1.1-5c-20.6-19.8-25.3-3.2-37.8-9.2-16.1-7.7-28.9-1.5-43.1-5.8-5.6-1.7-15.5-11.6-38.3-3.8-13.5 4.6-29.9-.7-46.7-.5l4.4 15.3c5.7-.6 26.7-4.7 31.4-2.2-3.7 6.5-12.2 4-23.5 4.3-10.2.3-6.7.4-7.6 1.6-7.6 13.9 23.9 9.6 32.7 8.1 32.1-5.2 28.4-10 34.7 2.9 8.4.8 11.5 0 19-.9 9.3-1.2 21.3 5.6 37.6 3.9 9.6-1.4 2.1-4.8 7.9-1.5zM996.8 1409.1c-3.7-2-1.8-5.6-6.1-10.7-13.9-16.9-5.3 1.1-12.7-26.3-2-7.3-4.8-8.3-5.4-15.1l9.6-6.2c-1.5-8.2-1.7.8-6.2-17.1-1.7-6.7-6-9.2-13.8-9-8.2 11.5-5.4 18.6-14.8 21.5-1.3-2.8-3.1-7.1-4.3-11.5-2.5-9.2-.1-2.1 3.1-10.1-24.9-3.3-18 8.4-9.4 19.8 6.5 8.5 11.8 17.6 17.9 24.3 6.7 7.3 34.3 40.3 42.1 40.4zm908.7 295c.2-7.7.3-3.5 2.3-5.9l4.2-3.5c-6-3.5-19.1 12.5-23.1 15.7-6 4.8-20.5 14-30.9 9.3 3-3 14.3-5.8 18.7-7.5-2.4-1.7.2-.8-3.8-1.5-2.3-.4-3.2-.3-5.6-.1-39.5 3.7-22.5 18.3-53.5 32.5 8.4 5.2 28-7.5 33.7-11.5 10.8-7.6 26.5-6.5 40.6-2.9-6.4 6-6.5 1.9-12.4 5.1 11.1 9.4 20.2 4 27.3-4.7-3.6-2.4-6.3 1.4-13.7-5.1 2.7-5.4 59.3-32.5 66.4-38.1-24.2-1.6-16.3 5.8-26.8 8.3-14.3 3.2-14.2 15-23.4 9.9zm-58.5-112.3-1.6 8.2c5.3 1.2 3.8.2 5.5.3 5.4.2 2.4-.9 4.8.6-3.7 7.1-2-4.8-10.1 5.1-7.5 9.2-3.6 2.5-11 7.9-1.9 1.4-3.1 2.9-3.5 5.9l.4 5.4c1.3 5.9 2.2 7.5 10.4 11.4 3.6-4.2 4.4-5 1.1-9.2.4-.2 1-.8 1.2-.5 0 0 3.7-.4 5.4-4.2l-7.6-1c15-4.3 15.9-1.1 31.4-9.6 9.2-5.1 17.4-11.4 26-16.3-7-3.6-4.4 2.7-8-4.4 1.8-3.5 1.2-1.7 3.3-3.6 1.1-1.1.4.8 3.2-2.7l-16.9 7.7c-2.4-4.7-6.9-10.3 2.6-10.5 8.8-.2 11.1 3.2 13.3-7.4l-28.9 9.5c-6.4 2.8-.6-1.4-5.8 3.7-11.3 11.6-7.5 7.8-15.2 3.7z" style="fill-rule:evenodd;clip-rule:evenodd;fill:url(#a)"/><path d="M0 781.8h198.5c24.5 0 188.9-3.4 197 2.1 4.4 4.7 2.7 14.9 2.7 23.5 0 14.6 2.5 67.6-2.7 72-8.2 4.2-354 1.7-395.5 1.7v299.2l99.8-.1V981.1l183.4-.3 115.2 199.4 114.8.1c-6.4-17.9-109.9-186.8-113.2-199.4 36.3-1.1 59.2-17.4 75.2-36 22-25.5 23.1-49.1 23.1-89.1 0-64.7 12.1-132.4-58.1-165.1-27.7-12.9-68.4-9.1-102.6-9.1H0v100.2zm1215.6-.6 343.9.6c-4.2 6.7-40.5 36.2-49.5 44.2-7.8 6.9-16 14.2-24.4 20.9L1361.3 954c-40.3 32.7-83.6 73.9-123.5 106.3-4.5 3.7-8.1 7.3-12.7 10.8-5.1 3.9-9 5.5-9.5 14.4-1.7 29 .1 64.5.1 94.3l498 .1v-99.3l-344-.3c3.5-5.9 40.1-35.8 48.2-43.1 8-7.3 15.8-13.5 24.4-20.9 8.3-7.1 16.6-14.9 25.2-21.7l37.1-31.7c43-37.8 98.5-82.6 137.7-118.8l49.5-42.7c11.3-9.2 21.6-15.3 22.1-25.2 1.3-27 1-67-.3-94.1-39.9-1.8-83.4-.2-123.7-.2-55.7 0-363.4-2.4-374.2 1.2l-.1 98.1zM3000 1179.9V681.7h-99l-.8 343.6c-8.4-4.5-160.5-184.8-173-198.5-33.4-36.5-74.5-89.8-107-124.4-3.7-4-7.1-7.9-11-12.5-4.3-5.2-4.3-8.3-14.1-8.4-29.5-.2-63.8-1.2-92.8.3l-.8 497.3 100.1.7V835.9c6.7 4.4 227.6 263 260 300.3l38.2 43.3 100.2.4zm-1147.3 0 498 .4-.1-100-181.4.1-216-.2-.6-99.1 214.9-.2 183.4-.7-.1-99.2-192.5.2-305.5-.3-.1 299zm-971.9.1 17.8-.3c.3-94.1.5-77.4 0-183.2-.1-21.9 5.3-23.8 25.1-50.3 11.8-15.8 187.9-257.6 190.1-264.2h-123L848.9 877.9c-4.7-5-27.3-35.5-29.4-41.2-7.4-6.5-21.9-29.5-28.6-38.5-9.8-13.1-18.6-25-27.7-38-7.1-10.2-53.1-71.8-54.5-77.7l-124.2-.5c2 6.5 133.2 187.4 148.2 207.3 13.1 17.4 25 34.8 37.4 51.7 6.7 9.1 11.9 16.6 18.3 25.5 11 15.1 10.6 11.1 10.5 34.8-.1 57.6-2.5 121.4 0 178.2l81.9.5zm972-498.1-.3 99.9 289.2.1 209.2-.6-.7-100.1-497.4.7z" style="fill-rule:evenodd;clip-rule:evenodd;fill:#FFF"/></svg>