<svg height="100" width="100" xmlns="http://www.w3.org/2000/svg" viewBox="0 0 2000 1322.4" fill="#FFF" style="enable-background:new 0 0 2000 1322.4" xml:space="preserve"><path d="M1461.4 0c-1.9-.1-3.8.6-5.2 2.4l-423 528.7c-2.2 2.7-1.8 6.7 1 8.9 1.1.9 2.5 1.4 4 1.4h305.6c8.3 0 16-3.7 21.2-10.2l96.6-120.7c3.8-4.8 6-10.8 6-17V6.4c-.1-3.8-3.1-6.2-6.2-6.4zM477.9 0c-3.1.2-6.1 2.6-6.1 6.3v387.3c0 6.2 2.1 12.1 6 17l317.7 397.1c5.1 6.5 12.9 10.2 21.2 10.2h305.6c5.3 0 8.3-6.2 4.9-10.3L483.2 2.4C481.8.7 479.8 0 477.9 0zM1784.1 1091.2h71.6l.2 219.2c0 2.8 2.3 5.1 5.1 5.1h41c2.8 0 5.1-2.3 5.1-5.1l-.2-219.2h89.8c2.6 0 4.1-3.1 2.5-5.1l-30.7-38.5c-2.6-3.2-6.5-5.1-10.6-5.1h-173.8c-2.8 0-5.1 2.3-5.1 5.1v38.5c0 2.8 2.3 5.1 5.1 5.1M55.8 1310.4l210.1-262.8c1.7-2.1.2-5.1-2.5-5.1h-52.5c-4.1 0-8 1.9-10.6 5.1L51.3 1234v-186.4c0-2.8-2.3-5.1-5.1-5.1h-41c-2.8 0-5.1 2.3-5.1 5.1v262.8c0 2.8 2.3 5.1 5.1 5.1h40.1c4.1.1 8-1.8 10.5-5.1m148.1 0 72.3-90.4 72.3 90.4c2.6 3.2 6.5 5.1 10.6 5.1h40.1c2.8 0 5.1-2.3 5.1-5.1v-262.8c0-2.8-2.3-5.1-5.1-5.1h-33.6c-8.2 0-16 3.7-21.2 10.2l-206 257.8c-1.7 2.1-.2 5.1 2.5 5.1h52.5c4.1 0 8-1.9 10.5-5.2m149.1-192v121.1l-48.4-60.5 48.4-60.6zm1172.9 192-210.1-262.8c-2.6-3.2-6.5-5.1-10.6-5.1h-40.1c-2.8 0-5.1 2.3-5.1 5.1v262.8c0 2.8 2.3 5.1 5.1 5.1h40.1c4.1 0 8-1.9 10.6-5.1l72.3-90.4 72.3 90.4c2.6 3.2 6.5 5.1 10.6 5.1h52.5c2.5.1 4-3 2.4-5.1M1359.6 1179l-48.4 60.6v-121.1l48.4 60.5zm-578.1-143.4c-79.2 0-143.4 64.2-143.4 143.4s64.2 143.4 143.4 143.4 143.4-64.2 143.4-143.4-64.2-143.4-143.4-143.4m0 238c-50.9 0-92.1-42.4-92.1-94.6 0-52.3 41.2-94.7 92.1-94.7s92.1 42.4 92.1 94.7c.1 52.3-41.2 94.6-92.1 94.6m910.6-226V1234l-149-186.5c-2.6-3.2-6.5-5.1-10.6-5.1h-40.2c-2.8 0-5.1 2.3-5.1 5.1v126.7c0 3.1 1 6.1 3 8.5l42.7 53.4c1.9 2.3 5.7 1 5.7-2v-110.2l149.1 186.5c2.6 3.2 6.5 5.1 10.6 5.1h40.1c2.8 0 5.1-2.3 5.1-5.1v-262.8c0-2.8-2.3-5.1-5.1-5.1h-41c-3-.1-5.3 2.3-5.3 5.1m-501.1 56.9v-57c0-2.8-2.3-5.1-5.1-5.1H976c-2.8 0-5.1 2.3-5.1 5.1v262.8c0 2.8 2.3 5.1 5.1 5.1h41c2.8 0 5.1-2.3 5.1-5.1v-219.2h117.6l-79.4 99.4c-1.5 1.9-1.5 4.5 0 6.4l90.7 113.5c2.6 3.2 6.5 5.1 10.6 5.1h52.5c2.6 0 4.1-3.1 2.5-5.1l-93.2-116.6 64.6-80.8c1.9-2.4 3-5.4 3-8.5m-720 211.1h121.7c4.1 0 8-1.9 10.6-5.1L634 1272c1.7-2.1.2-5.1-2.5-5.1H517.2v-219.2c0-2.8-2.3-5.1-5.1-5.1h-41c-2.8 0-5.1 2.3-5.1 5.1v262.8c-.1 2.7 2.2 5.1 5 5.1"/></svg>